<?xml version="1.0" ?><!DOCTYPE svg  PUBLIC '-//W3C//DTD SVG 1.1//EN'  'http://www.w3.org/Graphics/SVG/1.1/DTD/svg11.dtd'><svg enable-background="new 0 -6 32 32" height="32px" overflow="visible" version="1.1" viewBox="0 -6 32 32" width="32px" xml:space="preserve" xmlns="http://www.w3.org/2000/svg" xmlns:xlink="http://www.w3.org/1999/xlink"><defs/><path d="M28.899,2.83h-8.02v-2h8.02V2.83z M15.543,11.033c0.518,0.807,0.775,1.783,0.775,2.932  c0,1.184-0.292,2.25-0.885,3.189c-0.377,0.623-0.846,1.146-1.408,1.57c-0.634,0.49-1.385,0.826-2.247,1.006  C10.913,19.91,9.977,20,8.967,20H0V0h9.616c2.424,0.039,4.142,0.744,5.156,2.131c0.609,0.85,0.91,1.869,0.91,3.053  c0,1.223-0.305,2.203-0.92,2.945c-0.342,0.416-0.847,0.797-1.516,1.137C14.26,9.641,15.029,10.227,15.543,11.033z M4.592,7.885  h4.214c0.865,0,1.565-0.166,2.104-0.494c0.538-0.332,0.807-0.918,0.807-1.76c0-0.932-0.355-1.549-1.069-1.846  c-0.613-0.207-1.397-0.312-2.35-0.312H4.592V7.885z M12.123,13.678c0-1.039-0.423-1.758-1.267-2.143  c-0.471-0.219-1.137-0.332-1.99-0.34H4.592v5.33H8.8c0.864,0,1.533-0.111,2.016-0.35C11.687,15.738,12.123,14.91,12.123,13.678z   M31.874,10.424c0.096,0.654,0.139,1.604,0.123,2.846H21.612c0.058,1.439,0.552,2.445,1.491,3.021  c0.564,0.361,1.251,0.539,2.056,0.539c0.846,0,1.537-0.217,2.068-0.658c0.291-0.234,0.545-0.566,0.766-0.982H31.8  c-0.1,0.85-0.559,1.713-1.381,2.588c-1.275,1.395-3.066,2.092-5.363,2.092c-1.899,0-3.572-0.588-5.024-1.764  c-1.448-1.176-2.175-3.088-2.175-5.738c0-2.484,0.652-4.387,1.962-5.711c1.314-1.326,3.011-1.988,5.103-1.988  c1.238,0,2.357,0.223,3.354,0.672c0.994,0.447,1.814,1.152,2.463,2.121C31.321,8.314,31.698,9.301,31.874,10.424z M28.128,10.797  c-0.07-0.996-0.402-1.75-0.998-2.264c-0.59-0.518-1.329-0.775-2.209-0.775c-0.959,0-1.699,0.277-2.226,0.82  c-0.529,0.545-0.858,1.285-0.993,2.219H28.128z" id="behance_1_"/></svg>